<svg width="28" height="27" viewBox="0 0 28 27" fill="none" xmlns="http://www.w3.org/2000/svg">
<path d="M22.5925 10.8395C22.9997 10.8395 23.3275 11.172 23.3275 11.5757C23.3275 11.9782 22.9997 12.3107 22.5925 12.3107H20.545V13.6232H22.5925C22.9997 13.6232 23.3275 13.9533 23.3275 14.3582C23.3275 14.7595 22.9997 15.092 22.5925 15.092H19.8088C19.4063 15.092 19.0773 14.7595 19.0773 14.3582V8.792C19.0773 8.3895 19.4063 8.057 19.8123 8.057H22.596C22.9997 8.057 23.3275 8.3895 23.3275 8.792C23.3275 9.19917 22.9997 9.527 22.5925 9.527H20.545V10.8395H22.5925ZM18.095 14.3582C18.095 14.6732 17.892 14.9532 17.591 15.0535C17.5163 15.078 17.4358 15.0897 17.3588 15.0897C17.1127 15.0897 16.9027 14.9847 16.7638 14.798L13.9137 10.9282V14.3582C13.9137 14.7595 13.5882 15.092 13.1775 15.092C12.7738 15.092 12.4472 14.7595 12.4472 14.3582V8.792C12.4472 8.477 12.649 8.197 12.9488 8.09783C13.0188 8.071 13.1075 8.05933 13.1752 8.05933C13.4027 8.05933 13.6127 8.18067 13.7527 8.35567L16.625 12.2407V8.792C16.625 8.3895 16.954 8.057 17.36 8.057C17.7625 8.057 18.095 8.3895 18.095 8.792V14.3582ZM11.3972 14.3582C11.3972 14.7595 11.0682 15.092 10.661 15.092C10.2585 15.092 9.9295 14.7595 9.9295 14.3582V8.792C9.9295 8.3895 10.2585 8.057 10.6645 8.057C11.0682 8.057 11.3972 8.3895 11.3972 8.792V14.3582ZM8.52017 15.092H5.7365C5.334 15.092 5.0015 14.7595 5.0015 14.3582V8.792C5.0015 8.3895 5.334 8.057 5.7365 8.057C6.1425 8.057 6.4715 8.3895 6.4715 8.792V13.6232H8.52017C8.92617 13.6232 9.254 13.9533 9.254 14.3582C9.254 14.7595 8.925 15.092 8.52017 15.092ZM28 11.3657C28 5.0995 21.7175 0 14 0C6.2825 0 0 5.0995 0 11.3657C0 16.9785 4.98167 21.6813 11.7075 22.575C12.1637 22.6707 12.7843 22.876 12.9418 23.2633C13.0818 23.6145 13.034 24.157 12.9862 24.5233L12.7948 25.7133C12.7423 26.0645 12.5148 27.097 14.0187 26.4658C15.5248 25.837 22.0873 21.7082 25.0273 18.3283C27.0387 16.1245 28 13.867 28 11.3657Z" fill="white"/>
</svg>
